<?xml version="1.0" encoding="UTF-8" standalone="no"?>
<svg
   xmlns:dc="http://purl.org/dc/elements/1.1/"
   xmlns:cc="http://creativecommons.org/ns#"
   xmlns:rdf="http://www.w3.org/1999/02/22-rdf-syntax-ns#"
   xmlns:svg="http://www.w3.org/2000/svg"
   xmlns="http://www.w3.org/2000/svg"
   id="svg8"
   version="1.1"
   viewBox="0 0 20 15"
   height="15mm"
   width="20mm">
  <defs
     id="defs2" />
  <metadata
     id="metadata5">
    <rdf:RDF>
      <cc:Work
         rdf:about="">
        <dc:format>image/svg+xml</dc:format>
        <dc:type
           rdf:resource="http://purl.org/dc/dcmitype/StillImage" />
        <dc:title></dc:title>
      </cc:Work>
    </rdf:RDF>
  </metadata>
  <g
     id="layer1">
    <path
       id="path25"
       d="M 5.3048465,14.970562 V 12.93761 l 1.6768945,-0.0011 5.653e-4,0.372631 c 0,0 4.6906337,6.02e-4 6.4569827,0 v -0.92398 C 9.4023678,12.358811 5.3640408,12.377639 1.3279806,12.317011 0.28622115,12.387807 -0.08461699,11.289746 0.0158199,10.436723 0.01868566,7.5879543 0.01017125,4.7390348 0.01996225,1.8904169 0.01619648,0.93745001 0.75222413,-0.06266199 1.7734261,0.01461101 c 5.703932,0.04217 11.4086539,-0.0037 17.1122209,-0.0037 C 19.713243,0.13179301 20.135217,1.0373476 20,1.7958869 19.96873,4.7950604 20.15148,7.5438008 20,10.54 c 0.01959,1.01962 -1.165098,1.876531 -2.081481,1.836764 -0.492126,0.01883 -0.984724,0.0075 -1.477076,0.0113 v -1.84821 H 18.03107 V 2.0384118 H 1.7816957 V 10.539792 H 14.255958 c 1.318901,0.47042 1.522367,2.208475 1.033742,3.351801 -0.234608,0.561401 -0.643984,1.275984 -1.339862,1.108407 -2.881725,-2.26e-4 -5.7634492,2.26e-4 -8.645176,0 z"
       style="fill:#d40000;stroke-width:0.18067271" />
    <path
       style="fill:#808080;stroke-width:3.76577187"
       id="rect27"
       d="M 5.2965279,8.2844714 V 9.6895939 H 6.981741 V 8.2844714 Z" />
  </g>
</svg>
